<svg version="1.1" id="Layer_1" xmlns="http://www.w3.org/2000/svg" xmlns:xlink="http://www.w3.org/1999/xlink" x="0px" y="0px"
	 width="100%" viewBox="0 0 1024 1024" enable-background="new 0 0 1024 1024" xml:space="preserve">
<path fill="#000000" opacity="1.000000" stroke="none" 
	d="
M643.727539,464.661804 
	C614.960876,517.888550 586.374207,570.793152 557.785461,623.696533 
	C555.092896,628.679199 552.303223,633.611694 549.720764,638.650635 
	C548.330811,641.362732 546.382080,642.350464 543.337708,642.338013 
	C519.674072,642.241272 496.009644,642.227783 472.346161,642.339783 
	C469.031097,642.355469 467.253601,641.023865 465.699615,638.246094 
	C435.687592,584.598450 405.596008,530.995361 375.526978,477.379700 
	C356.540131,443.524475 337.549011,409.671600 318.591705,375.799805 
	C313.653748,366.977020 313.642517,369.011322 319.970978,361.956238 
	C323.290314,358.255798 326.465668,354.399384 330.433777,351.418457 
	C333.081696,352.161804 333.619507,354.516144 334.619751,356.297150 
	C363.089996,406.989990 391.496246,457.718750 419.919556,508.437927 
	C439.709045,543.750732 459.543488,579.038452 479.243744,614.400940 
	C481.019623,617.588684 483.120544,618.817810 486.760101,618.769287 
	C500.422791,618.587402 514.092102,618.546265 527.752869,618.791321 
	C531.969421,618.866943 534.369568,617.483826 536.371277,613.747742 
	C555.410034,578.211853 574.605408,542.759888 593.776794,507.295105 
	C626.811646,446.184479 659.858826,385.080536 692.906494,323.976868 
	C706.933838,298.040863 721.075378,272.165649 734.909180,246.126862 
	C737.136230,241.934998 739.795776,240.480896 744.342468,240.721817 
	C750.575562,241.052078 756.839294,240.804367 764.636353,240.804367 
	C723.912231,316.206665 683.909607,390.272980 643.727539,464.661804 
z"/>
<path fill="#000000" opacity="1.000000" stroke="none" 
	d="
M653.654297,289.681641 
	C661.729248,274.499725 669.716797,259.690094 677.499939,244.773773 
	C679.026489,241.848114 680.911987,240.676346 684.161926,240.760147 
	C690.950745,240.935226 697.747314,240.813187 704.190979,240.813187 
	C705.637451,243.549454 704.085083,245.014786 703.285217,246.529358 
	C674.813416,300.441437 646.286865,354.324615 617.794250,408.225708 
	C593.972595,453.290405 570.187256,498.374268 546.378235,543.445618 
	C538.364502,558.615906 530.246094,573.731689 522.348938,588.962280 
	C519.903015,593.679626 516.365356,596.734192 511.143158,596.930664 
	C506.041779,597.122681 502.492126,594.137756 499.954834,589.791077 
	C485.760773,565.475281 471.521423,541.185913 457.296631,516.888062 
	C432.887878,475.194733 408.480438,433.500641 384.068542,391.809143 
	C373.545868,373.838104 363.066437,355.841278 352.434235,337.935242 
	C350.625427,334.888977 350.766266,332.896942 353.810760,330.898224 
	C357.567017,328.432312 361.187531,325.743805 364.739899,322.988007 
	C367.910950,320.528046 369.820557,320.688965 372.053802,324.524841 
	C397.621368,368.440582 423.368988,412.251587 449.063843,456.093231 
	C468.355164,489.008911 487.637665,521.929810 506.933258,554.842957 
	C507.764496,556.260864 508.688202,557.624512 510.558014,560.573608 
	C558.569824,469.695099 606.032593,379.855865 653.654297,289.681641 
z"/>
<path fill="#000000" opacity="1.000000" stroke="none" 
	d="
M273.109924,561.108765 
	C276.458466,588.986023 284.951233,614.807312 297.823029,639.151123 
	C316.990906,675.402222 343.845306,704.753479 378.359802,726.935303 
	C407.511230,745.670227 439.232452,757.704651 473.729919,761.721313 
	C549.774902,770.575256 615.026978,747.562134 669.592407,694.208374 
	C686.985657,677.201294 700.837402,657.391113 711.681519,635.592224 
	C713.466064,632.004944 715.669373,630.629578 719.444519,630.961914 
	C723.850464,631.349792 728.368408,630.285950 733.614807,632.049133 
	C723.973633,654.863220 711.003479,675.199707 695.110291,693.636230 
	C656.312805,738.642334 607.788818,767.478027 549.283997,778.108215 
	C432.244080,799.374084 321.471680,737.344910 274.831238,634.562683 
	C229.875809,535.493713 259.724640,433.526276 303.153259,381.149933 
	C307.016998,385.877075 309.597748,391.248077 312.420258,396.440430 
	C313.247314,397.961884 311.968842,399.303619 311.140198,400.522491 
	C291.734222,429.066833 279.265533,460.409607 273.902588,494.466431 
	C270.441956,516.442932 270.061554,538.552612 273.109924,561.108765 
z"/>
<path fill="#000000" opacity="1.000000" stroke="none" 
	d="
M662.488159,676.482544 
	C625.995239,715.734802 581.549988,739.884949 528.591309,744.812805 
	C438.359253,753.208923 368.163483,718.068970 319.162994,641.925476 
	C302.000427,615.256042 292.901794,585.342773 289.532776,553.695679 
	C284.435974,505.818726 294.804138,461.449188 319.055206,420.114716 
	C320.013489,418.481354 320.569702,416.356934 323.609283,415.430359 
	C327.007538,421.477875 330.544312,427.614258 333.900238,433.847992 
	C334.810272,435.538391 333.368835,437.014832 332.599915,438.449524 
	C320.908325,460.263855 313.510437,483.485962 310.506714,508.011292 
	C308.106537,527.608826 308.664490,547.200745 312.556885,566.619812 
	C324.064819,624.032227 354.948578,668.028381 404.882751,698.366699 
	C431.197083,714.354309 459.940094,723.154053 490.858124,724.975830 
	C548.491760,728.371704 597.855591,709.552673 639.592896,670.182251 
	C650.396484,659.991272 659.821106,648.477783 667.589905,635.755798 
	C669.767151,632.190369 672.380310,630.686340 676.530212,630.895630 
	C681.963989,631.169617 687.421997,630.962769 694.544800,630.962769 
	C685.447388,648.377136 675.072693,662.967529 662.488159,676.482544 
z"/>
<path fill="#000000" opacity="1.000000" stroke="none" 
	d="
M597.423096,339.379730 
	C568.400085,396.859497 539.538635,454.002777 510.662781,511.174652 
	C507.401611,509.832825 506.812927,507.382477 505.708893,505.453003 
	C468.732361,440.830688 431.827423,376.167389 394.800323,311.574066 
	C392.719421,307.944000 392.920288,305.996368 396.967468,304.447479 
	C401.003906,302.902710 404.964874,301.100555 408.798798,299.103851 
	C412.654449,297.095856 414.645020,298.399200 416.658173,301.948822 
	C436.873932,337.593475 457.230438,373.158264 477.553925,408.741821 
	C486.889313,425.086761 496.231262,441.427948 505.598114,457.754822 
	C506.319427,459.012115 506.781738,460.561615 508.550476,461.100677 
	C510.826172,459.756195 511.537994,457.240173 512.625427,455.085236 
	C544.743469,391.436951 576.812134,327.763855 608.901672,264.101196 
	C612.125183,257.706055 615.544861,251.407150 618.647461,244.954895 
	C620.047913,242.042328 621.875854,240.665817 625.202026,240.755417 
	C631.968567,240.937683 638.743408,240.809952 647.117859,240.809952 
	C630.169495,274.421722 613.877136,306.732513 597.423096,339.379730 
z"/>
<path fill="#000000" opacity="1.000000" stroke="none" 
	d="
M538.308838,679.215454 
	C568.757141,671.986572 594.157227,656.876709 615.211792,634.411987 
	C617.456726,632.016724 619.701538,630.800232 622.988403,630.892822 
	C629.315552,631.070984 635.650818,630.943481 641.982605,630.978699 
	C643.602966,630.987732 645.313354,630.742004 647.496277,632.584045 
	C615.899719,675.433533 574.129150,701.485657 521.263855,705.850647 
	C446.968750,711.985168 389.058197,682.026367 351.232880,617.892456 
	C320.467407,565.728638 320.478088,510.838348 344.986694,454.463135 
	C348.948273,458.964111 350.478424,463.458466 353.222412,467.074432 
	C359.330750,475.123749 359.294159,482.937347 356.678955,492.882202 
	C334.283661,578.043701 388.536469,663.362854 475.494049,680.558044 
	C496.311981,684.674622 517.189880,684.134949 538.308838,679.215454 
z"/>
<path fill="#000000" opacity="1.000000" stroke="none" 
	d="
M502.005554,298.237793 
	C481.243500,298.247925 461.345551,301.016174 441.900482,306.655609 
	C437.692627,307.875946 435.430115,307.050964 433.644318,303.128632 
	C432.002319,299.522095 429.793640,296.173553 427.873474,292.779968 
	C447.611328,276.429779 551.318115,276.137634 579.959106,292.369019 
	C578.332397,297.505768 575.288940,302.041290 572.538696,306.666809 
	C571.174683,308.960876 568.872192,307.454803 567.074768,306.936096 
	C545.976440,300.847839 524.451660,297.987183 502.005554,298.237793 
z"/>
<path fill="#000000" opacity="1.000000" stroke="none" 
	d="
M447.621582,323.059357 
	C486.219208,312.700500 524.341248,313.089203 563.443237,323.904785 
	C560.040527,330.102478 557.196106,335.490692 554.138550,340.755127 
	C552.833557,343.002014 550.661499,342.049652 548.729675,341.576202 
	C533.635132,337.877014 518.292908,336.181152 502.776215,336.298950 
	C489.117401,336.402618 475.511536,337.510132 462.260193,340.981537 
	C457.553497,342.214478 454.794281,341.304108 452.860779,336.773560 
	C451.499146,333.582916 449.384583,330.720306 447.728516,327.645386 
	C447.000275,326.293152 445.505432,324.876801 447.621582,323.059357 
z"/>
<path fill="#000000" opacity="1.000000" stroke="none" 
	d="
M726.863220,464.007294 
	C720.232483,442.139191 710.848145,421.988586 698.346497,403.340607 
	C696.379395,400.406433 696.226379,398.138489 698.142029,395.208466 
	C700.501526,391.599518 702.418152,387.702179 704.573792,383.956940 
	C704.788147,383.584442 705.333008,383.402161 706.100891,382.871490 
	C710.929443,387.772675 714.234863,393.718353 717.782837,399.448517 
	C732.988770,424.006927 743.536804,450.436279 749.634155,478.683075 
	C750.545105,482.903229 749.730652,484.354340 745.262207,484.383392 
	C732.515930,484.466125 732.528931,484.607239 729.212097,472.049164 
	C728.533203,469.478760 727.726318,466.942139 726.863220,464.007294 
z"/>
<path fill="#000000" opacity="1.000000" stroke="none" 
	d="
M539.112305,358.613159 
	C543.124084,359.050598 543.555664,360.768127 541.879578,363.738434 
	C539.185791,368.512238 536.634521,373.367950 534.096680,378.227539 
	C532.961914,380.400299 531.554199,381.329865 528.912170,380.854340 
	C513.609009,378.100067 498.245422,377.594269 482.863068,380.231750 
	C479.506714,380.807281 477.246735,379.887573 475.612183,376.676361 
	C472.776794,371.105988 469.577850,365.720642 466.053070,359.400116 
	C490.853302,353.533051 514.736328,353.810059 539.112305,358.613159 
z"/>
<path fill="#000000" opacity="1.000000" stroke="none" 
	d="
M708.688965,484.302979 
	C704.397095,484.298035 700.560974,484.164642 696.737427,484.326874 
	C693.880310,484.448090 692.481812,483.159882 691.793884,480.537323 
	C688.188416,466.792145 682.951904,453.675446 676.424377,441.065430 
	C675.803528,439.865936 675.031128,438.583099 675.673401,437.284515 
	C678.885010,430.790649 682.085876,424.280609 686.731323,417.283539 
	C699.842834,438.358215 708.674866,459.960938 713.761902,482.792297 
	C712.183594,484.681641 710.580688,484.136017 708.688965,484.302979 
z"/>
<path fill="#000000" opacity="1.000000" stroke="none" 
	d="
M662.008423,484.296021 
	C658.249084,484.086273 654.916504,484.792572 651.091431,483.572479 
	C654.296753,475.180328 658.990417,467.814484 663.854614,459.214996 
	C668.513794,467.452209 670.797119,475.219604 673.062439,483.212219 
	C669.362488,485.091736 665.847534,483.955261 662.008423,484.296021 
z"/>
</svg>